#!OML:ASF F:\VICON\USERDATA\INSTALL\rory3\rory3.ASF
:FULLY-SPECIFIED
:DEGREES
18
root -0.5481697838592691 16.846614021946223 -27.15138616854915 3.90983855598617 -5.556926253338134 -6.22087309438509
lfemur -15.616400753468323 6.668481678137987 -9.869307338014714
ltibia 101.7719833855918
lfoot 29.170086779398904 -20.228787302583264
ltoes 11.293681348792058
rfemur -30.96899356693634 6.903870813180525 35.44409022848915
rtibia 54.34410233233776
rfoot -20.22398540567122 -13.233388822145562
rtoes 2.750939889261151
lowerback 18.53868547453208 -0.420001692113559 3.6317336434304304
upperback 0.11280708022575636 0.6304259263462515 3.8880511432791716
thorax -10.332790347887236 0.22649105793269492 2.026262903698209
lowerneck -18.455504915906133 -2.26932264493308 -2.3484584863970475
upperneck 13.128994730297542 -2.6048330844416143 0.8424883271414232
head 7.082528029434639 -1.2910419364613004 0.3603925661558018
lclavicle 1.1245390920639898e-15 -1.476601577400826e-15
lhumerus -46.49610273882161 -7.721670717580541 96.61580156658094
lradius 95.98991774268187
lwrist 33.859295631042826
lhand -29.89430632114146 2.0613438506222774
lfingers 7.125019999999998
lthumb -3.2153663204229073 32.01679368412189
rclavicle 1.1245390920639898e-15 -1.476601577400826e-15
rhumerus -46.03550469595741 6.545230698742404 -93.13031480779429
rradius 98.72001323404868
rwrist -10.213208465645067
rhand -21.55438593956377 41.212591033895215
rfingers 7.125019999999998
rthumb 4.839054063500517 11.287891206942309
19
root -0.5724059783064745 16.801314732309592 -26.68228635700306 3.78546923579423 -4.718778009694809 -6.26038294335426
lfemur -19.174398845343152 6.5491619779216625 -9.258648252506342
ltibia 104.03298255888097
lfoot 27.94158741880552 -19.30008846750117
ltoes 11.508081147439439
rfemur -29.29339438349524 7.211010231370544 35.660189902762895
rtibia 54.9323021391975
rfoot -21.732884490136225 -14.755486106049167
rtoes 2.227310216916986
lowerback 18.708784772121202 -0.41979869397665515 3.592813756652605
upperback 0.22580485757157953 0.6313489214169987 3.921780882568947
thorax -10.303490605752907 0.23074500194750155 2.0849926193851975
lowerneck -18.670503930046706 -2.4134616201560357 -2.196541357677889
upperneck 12.949595456252961 -2.8373919586488316 0.8695061823674675
head 7.061408314893107 -1.3910608594559175 0.31690525740884806
lclavicle 1.1245390873634396e-15 -1.4766016186313617e-15
lhumerus -47.047602330769635 -7.934640272626594 96.79140093131025
lradius 95.07371883621171
lwrist 33.010596491825034
lhand -30.322204801262615 1.500715742860037
lfingers 7.125019999999998
lthumb -3.628654800107218 31.449595597335904
rclavicle 1.1245390873634396e-15 -1.4766016186313617e-15
rhumerus -44.03770711638478 6.921129864357815 -93.36551423267306
rradius 99.03481289828215
rwrist -9.745759529926792
rhand -21.246187406576794 41.03769139229337
rfingers 7.125019999999998
rthumb 5.136692595477738 11.11999155181934
20
root -0.5894754109595999 16.801214733877725 -26.171886562048538 4.013337990253807 -4.3762087275557064 -6.315912731085416
lfemur -22.767596918340516 6.935821006463792 -8.993428649685537
ltibia 105.5589820009152
lfoot 26.56758813394164 -18.55048940776438
ltoes 10.99628162809376
rfemur -27.43609528860076 7.719539268070984 35.80298968752128
rtibia 55.15660206554678
rfoot -23.89058318093748 -15.335585070895405
rtoes 4.643508705005849
lowerback 18.010287656506854 -0.30047478911754866 3.5546938675474937
upperback 0.29040415859671886 0.740117340539588 3.99546031307208
thorax -9.840344681878726 0.2893842302099078 2.146412322049848
lowerneck -18.298005638105476 -2.5152408965414406 -2.2206009029450224
upperneck 12.629496751561382 -2.983231252656303 0.9160549329380869
head 6.898080522465626 -1.4594601229315387 0.3252341250172316
lclavicle 1.1245390920639898e-15 -1.4766016591747027e-15
lhumerus -47.973901645405086 -7.923140296653333 97.10409980005086
lradius 94.75161922065392
lwrist 32.42559708515317
lhand -30.444904365438514 0.15565228273207082
lfingers 7.125019999999998
lthumb -3.7470643645278914 30.102500141219167
rclavicle 1.1245390920639898e-15 -1.4766016591747027e-15
rhumerus -42.48190900130865 7.534338503216651 -93.52041385390488
rradius 99.78801209491697
rwrist -9.691029654535058
rhand -21.132987945401815 40.904891664421854
rfingers 7.125019999999998
rthumb 5.245952056584542 10.989791819258215
21
root -0.6778104164972789 16.859434474495266 -20.48718705132059 3.870153376912655 -2.07761524922008 -6.024016708922604
lfemur -27.047476826098638 6.510622463844377 -7.700311045380781
ltibia 108.92181101742784
lfoot 26.330429655976584 -14.901027414806617
ltoes 3.473549095244154
rfemur -21.255008117105884 5.5152818759880695 37.508286024607045
rtibia 54.58941711822538
rfoot -24.61376040323746 -16.751315563238457
rtoes 0.873772090700073
lowerback 17.38776432755553 -0.1700819324690087 5.260278188501406
upperback 0.13519876933457975 0.9314609549146504 4.255268598082601
thorax -10.294365921489117 0.4169526043091129 1.555488039259827
lowerneck -19.97614484229947 -2.587969693758109 -2.0514759786152803
upperneck 12.545521902463324 -2.9882889262111263 0.6990503040874292
head 7.092005084476363 -1.4608779916240737 0.17369432025128273
lclavicle 1.1245391002941634e-15 -1.476601629024679e-15
lhumerus -48.8988769725121 -9.401253920138677 96.89173593733952
lradius 96.30999248654015
lwrist 32.337134709762566
lhand -30.553860441708526 0.047370228705161777
lfingers 7.125019999999998
lthumb -3.6477395071066825 30.219492476740708
rclavicle 1.1245391004554957e-15 -1.4766016289100911e-15
rhumerus -41.30884794756524 9.845901397766449 -94.70011032837162
rradius 102.86683697348774
rwrist -10.261008786476019
rhand -21.097071394973767 40.73502676727119
rfingers 7.125019999999998
rthumb 5.224866333867533 10.924147492816214
